# Verification OBJ created with gulp

mtllib verify.mtl

# Simple cube no materials
v -10 10 10
v -10 -10 10
v 10 -10 10
v 10 10 10
v -10 10 -10
v -10 -10 -10
v 10 -10 -10
v 10 10 -10

f 1 2 3 4
f 8 7 6 5
f 4 3 7 8
f 5 1 4 8
f 5 6 2 1
f 2 6 7 3


# Simple cube no materials. Translated x:50
v 40 10 10
v 40 -10 10
v 60 -10 10
v 60 10 10
v 40 10 -10
v 40 -10 -10
v 60 -10 -10
v 60 10 -10

f 9 10 11 12
f 16 15 14 13
f 12 11 15 16
f 13 9 12 16
f 13 14 10 9
f 10 14 15 11

vn 0 0 1
vn 0 0 -1
vn 0 1 0
vn 0 -1 0
vn 1 0 0
vn -1 0 0


# Simple cube with normals no materials. Translated x:-50
v -60 10 10
v -60 -10 10
v -40 -10 10
v -40 10 10
v -60 10 -10
v -60 -10 -10
v -40 -10 -10
v -40 10 -10

f 17//1 18//1 19//1 20//1
f 24//2 23//2 22//2 21//2
f 20//5 19//5 23//5 24//5
f 21//3 17//3 20//3 24//3
f 21//6 22//6 18//6 17//6
f 18//4 22//4 23//4 19//4


# Simple cube with uvs and normals and material. Translated x:-100
usemtl red
v -110 10 10
v -110 -10 10
v -90 -10 10
v -90 10 10
v -110 10 -10
v -110 -10 -10
v -90 -10 -10
v -90 10 -10

vt 0 1
vt 1 1
vt 1 0
vt 0 0

f 25/1/1 26/2/1 27/3/1 28/4/1
f 32/1/2 31/2/2 30/3/2 29/4/2
f 28/1/5 27/2/5 31/3/5 32/4/5
f 29/1/3 25/2/3 28/3/3 32/4/3
f 29/1/6 30/2/6 26/3/6 25/4/6
f 26/1/4 30/2/4 31/3/4 27/4/4
