# Verification OBJ created with gulp

mtllib verify.mtl

# Simple cube no materials
v -10 10 10
v -10 -10 10
v 10 -10 10
v 10 10 10
v -10 10 -10
v -10 -10 -10
v 10 -10 -10
v 10 10 -10

f 1 2 3 4
f 8 7 6 5
f 4 3 7 8
f 5 1 4 8
f 5 6 2 1
f 2 6 7 3


# Simple cube no materials. Translated x:50
v 40 10 10
v 40 -10 10
v 60 -10 10
v 60 10 10
v 40 10 -10
v 40 -10 -10
v 60 -10 -10
v 60 10 -10

f 9 10 11 12
f 16 15 14 13
f 12 11 15 16
f 13 9 12 16
f 13 14 10 9
f 10 14 15 11

vn 0 0 1
vn 0 0 -1
vn 0 1 0
vn 0 -1 0
vn 1 0 0
vn -1 0 0


# Simple cube with normals no materials. Translated x:-50
v -60 10 10
v -60 -10 10
v -40 -10 10
v -40 10 10
v -60 10 -10
v -60 -10 -10
v -40 -10 -10
v -40 10 -10

f 17//1 18//1 19//1 20//1
f 24//2 23//2 22//2 21//2
f 20//5 19//5 23//5 24//5
f 21//3 17//3 20//3 24//3
f 21//6 22//6 18//6 17//6
f 18//4 22//4 23//4 19//4
